<mxfile host="app.diagrams.net" modified="2021-11-05T18:05:53.995Z" agent="5.0 (Windows NT 10.0; Win64; x64) AppleWebKit/537.36 (KHTML, like Gecko) Chrome/95.0.4638.69 Safari/537.36" etag="4tEIBKuicbmEXAcRIm8V" version="15.6.8" type="github">
  <diagram id="hP5FpJyjz1O7kYPZ_RvF" name="Page-1">
    <mxGraphModel dx="1185" dy="614" grid="1" gridSize="10" guides="1" tooltips="1" connect="1" arrows="1" fold="1" page="1" pageScale="1" pageWidth="827" pageHeight="1169" math="0" shadow="0">
      <root>
        <mxCell id="0" />
        <mxCell id="1" parent="0" />
        <mxCell id="65p-3Kxj6MJQUYHp34su-1" value="" style="rounded=0;whiteSpace=wrap;html=1;fillColor=#B3B3B3;" parent="1" vertex="1">
          <mxGeometry x="330" y="40" width="360" height="370" as="geometry" />
        </mxCell>
        <mxCell id="65p-3Kxj6MJQUYHp34su-15" value="HTTPS" style="rounded=0;orthogonalLoop=1;jettySize=auto;html=1;exitX=0;exitY=0.5;exitDx=0;exitDy=0;entryX=1;entryY=0.5;entryDx=0;entryDy=0;startArrow=none;startFill=0;labelBorderColor=#000000;" parent="1" source="eO3I5LnKfRvNbHLIeRhK-1" target="65p-3Kxj6MJQUYHp34su-10" edge="1">
          <mxGeometry relative="1" as="geometry">
            <mxPoint x="373" y="105" as="sourcePoint" />
          </mxGeometry>
        </mxCell>
        <mxCell id="65p-3Kxj6MJQUYHp34su-16" value="HTTPS" style="rounded=0;orthogonalLoop=1;jettySize=auto;html=1;entryX=0.533;entryY=1.007;entryDx=0;entryDy=0;startArrow=none;startFill=0;labelBorderColor=#000000;exitX=0.01;exitY=0.675;exitDx=0;exitDy=0;exitPerimeter=0;entryPerimeter=0;" parent="1" source="eO3I5LnKfRvNbHLIeRhK-2" target="bY3dOtJh6fo_x3beHqzL-1" edge="1">
          <mxGeometry x="0.04" y="1" relative="1" as="geometry">
            <mxPoint x="370" y="225" as="sourcePoint" />
            <Array as="points" />
            <mxPoint as="offset" />
          </mxGeometry>
        </mxCell>
        <mxCell id="65p-3Kxj6MJQUYHp34su-17" value="HTTPS" style="edgeStyle=none;rounded=0;orthogonalLoop=1;jettySize=auto;html=1;exitX=0;exitY=0.5;exitDx=0;exitDy=0;entryX=1;entryY=0.5;entryDx=0;entryDy=0;startArrow=none;startFill=0;labelBorderColor=#000000;" parent="1" source="65p-3Kxj6MJQUYHp34su-6" target="eO3I5LnKfRvNbHLIeRhK-2" edge="1">
          <mxGeometry relative="1" as="geometry">
            <mxPoint x="640" y="240" as="sourcePoint" />
            <mxPoint x="529" y="240" as="targetPoint" />
          </mxGeometry>
        </mxCell>
        <mxCell id="65p-3Kxj6MJQUYHp34su-6" value="Freeturilo Mobile App" style="rounded=0;whiteSpace=wrap;html=1;" parent="1" vertex="1">
          <mxGeometry x="600" y="165" width="70" height="100" as="geometry" />
        </mxCell>
        <mxCell id="65p-3Kxj6MJQUYHp34su-8" value="&lt;div&gt;Google Maps API&lt;/div&gt;" style="rounded=0;whiteSpace=wrap;html=1;direction=north;" parent="1" vertex="1">
          <mxGeometry x="239" y="270" width="50" height="70" as="geometry" />
        </mxCell>
        <mxCell id="65p-3Kxj6MJQUYHp34su-10" value="&lt;div&gt;NextBike&lt;/div&gt;&lt;div&gt;API&lt;br&gt;&lt;/div&gt;" style="rounded=0;whiteSpace=wrap;html=1;" parent="1" vertex="1">
          <mxGeometry x="239" y="70" width="50" height="70" as="geometry" />
        </mxCell>
        <mxCell id="65p-3Kxj6MJQUYHp34su-11" value="Google Maps" style="rounded=0;whiteSpace=wrap;html=1;" parent="1" vertex="1">
          <mxGeometry x="119" y="270" width="120" height="70" as="geometry" />
        </mxCell>
        <mxCell id="65p-3Kxj6MJQUYHp34su-12" value="NextBike" style="rounded=0;whiteSpace=wrap;html=1;" parent="1" vertex="1">
          <mxGeometry x="119" y="70" width="120" height="70" as="geometry" />
        </mxCell>
        <mxCell id="eO3I5LnKfRvNbHLIeRhK-5" value="HTTPS" style="edgeStyle=none;rounded=0;orthogonalLoop=1;jettySize=auto;html=1;exitX=0.5;exitY=1;exitDx=0;exitDy=0;entryX=0.5;entryY=0;entryDx=0;entryDy=0;startArrow=none;startFill=0;labelBorderColor=#000000;" parent="1" source="eO3I5LnKfRvNbHLIeRhK-1" target="eO3I5LnKfRvNbHLIeRhK-2" edge="1">
          <mxGeometry relative="1" as="geometry" />
        </mxCell>
        <mxCell id="eO3I5LnKfRvNbHLIeRhK-1" value="NextBike Service" style="rounded=0;whiteSpace=wrap;html=1;fillColor=default;" parent="1" vertex="1">
          <mxGeometry x="373" y="80" width="140" height="50" as="geometry" />
        </mxCell>
        <mxCell id="eO3I5LnKfRvNbHLIeRhK-7" value="&lt;div&gt;PostgreSQL&lt;/div&gt;&lt;div&gt;Frontend/Backend&lt;/div&gt;&lt;div&gt;protocol&lt;/div&gt;" style="edgeStyle=none;rounded=0;orthogonalLoop=1;jettySize=auto;html=1;exitX=0.5;exitY=1;exitDx=0;exitDy=0;entryX=0.5;entryY=0;entryDx=0;entryDy=0;entryPerimeter=0;startArrow=none;startFill=0;labelBorderColor=#000000;" parent="1" source="eO3I5LnKfRvNbHLIeRhK-2" target="eO3I5LnKfRvNbHLIeRhK-6" edge="1">
          <mxGeometry relative="1" as="geometry" />
        </mxCell>
        <mxCell id="eO3I5LnKfRvNbHLIeRhK-2" value="Freeturilo Web API" style="rounded=0;whiteSpace=wrap;html=1;fillColor=default;" parent="1" vertex="1">
          <mxGeometry x="373" y="190" width="140" height="50" as="geometry" />
        </mxCell>
        <mxCell id="eO3I5LnKfRvNbHLIeRhK-6" value="PostgreSQL" style="shape=cylinder3;whiteSpace=wrap;html=1;boundedLbl=1;backgroundOutline=1;size=15;" parent="1" vertex="1">
          <mxGeometry x="403" y="300" width="80" height="90" as="geometry" />
        </mxCell>
        <mxCell id="eO3I5LnKfRvNbHLIeRhK-8" value="System Freeturilo" style="text;html=1;strokeColor=none;fillColor=none;align=center;verticalAlign=middle;whiteSpace=wrap;rounded=0;labelBorderColor=#000000;labelBackgroundColor=default;" parent="1" vertex="1">
          <mxGeometry x="460" y="40" width="100" height="30" as="geometry" />
        </mxCell>
        <mxCell id="eO3I5LnKfRvNbHLIeRhK-9" value="&lt;div&gt;NextBike&lt;/div&gt;&lt;div&gt;Data Parser&lt;/div&gt;" style="rounded=0;whiteSpace=wrap;html=1;fillColor=#FFFFFF;" parent="1" vertex="1">
          <mxGeometry x="513" y="80" width="70" height="50" as="geometry" />
        </mxCell>
        <mxCell id="RacqV1idYeEbb3_LsRxC-1" value="HTTPS" style="edgeStyle=none;rounded=0;orthogonalLoop=1;jettySize=auto;html=1;exitX=0.5;exitY=1;exitDx=0;exitDy=0;entryX=0.25;entryY=1;entryDx=0;entryDy=0;startArrow=none;startFill=0;labelBorderColor=#000000;" parent="1" source="65p-3Kxj6MJQUYHp34su-6" target="65p-3Kxj6MJQUYHp34su-8" edge="1">
          <mxGeometry relative="1" as="geometry">
            <mxPoint x="610" y="225" as="sourcePoint" />
            <mxPoint x="523" y="225" as="targetPoint" />
            <Array as="points">
              <mxPoint x="635" y="400" />
              <mxPoint x="360" y="400" />
              <mxPoint x="360" y="323" />
            </Array>
          </mxGeometry>
        </mxCell>
        <mxCell id="bY3dOtJh6fo_x3beHqzL-1" value="&lt;div&gt;Google Gmail API&lt;/div&gt;" style="rounded=0;whiteSpace=wrap;html=1;direction=north;" vertex="1" parent="1">
          <mxGeometry x="239" y="190" width="50" height="70" as="geometry" />
        </mxCell>
        <mxCell id="bY3dOtJh6fo_x3beHqzL-2" value="Google Gmail" style="rounded=0;whiteSpace=wrap;html=1;" vertex="1" parent="1">
          <mxGeometry x="119" y="190" width="120" height="70" as="geometry" />
        </mxCell>
        <mxCell id="bY3dOtJh6fo_x3beHqzL-3" value="HTTPS" style="rounded=0;orthogonalLoop=1;jettySize=auto;html=1;entryX=0.75;entryY=1;entryDx=0;entryDy=0;startArrow=none;startFill=0;labelBorderColor=#000000;exitX=0.007;exitY=0.913;exitDx=0;exitDy=0;exitPerimeter=0;" edge="1" parent="1" source="eO3I5LnKfRvNbHLIeRhK-2" target="65p-3Kxj6MJQUYHp34su-8">
          <mxGeometry x="-0.1791" relative="1" as="geometry">
            <mxPoint x="370" y="235" as="sourcePoint" />
            <mxPoint x="299" y="235" as="targetPoint" />
            <Array as="points">
              <mxPoint x="340" y="236" />
              <mxPoint x="340" y="288" />
            </Array>
            <mxPoint as="offset" />
          </mxGeometry>
        </mxCell>
      </root>
    </mxGraphModel>
  </diagram>
</mxfile>
